<svg width="250" height="250" viewBox="0 0 250 250" fill="none" xmlns="http://www.w3.org/2000/svg">
<rect width="250" height="250" fill="white"/>
<path fill-rule="evenodd" clip-rule="evenodd" d="M86.9138 57C85.2768 57 83.707 57.6459 82.5495 58.7955L35.2597 105.764C32.2465 108.757 32.2468 113.609 35.2603 116.601L84.3636 165.361L61.8034 187.768C59.8593 189.698 61.2362 193 63.9855 193H163.086C164.723 193 166.292 192.354 167.45 191.204L214.74 144.235C217.753 141.243 217.753 136.391 214.74 133.399L165.642 84.6335L188.196 62.2325C190.14 60.3016 188.763 57 186.014 57H86.9138ZM148.247 107.237H162.322C164.878 107.237 166.951 109.295 166.951 111.834V137.401C166.951 139.94 164.878 141.999 162.322 141.999H148.247C145.69 141.999 143.617 139.94 143.617 137.401V111.834C143.617 109.295 145.69 107.237 148.247 107.237ZM117.386 107.237H103.312C100.755 107.237 98.6823 109.295 98.6823 111.834V137.401C98.6823 139.94 100.755 141.999 103.312 141.999H117.386C119.943 141.999 122.015 139.94 122.015 137.401V111.834C122.015 109.295 119.943 107.237 117.386 107.237Z" fill="#B79DFF"/>
</svg>
