<svg width="32" height="32" viewBox="0 0 32 32" fill="none" xmlns="http://www.w3.org/2000/svg">
<path fill-rule="evenodd" clip-rule="evenodd" d="M9.37631 4.09309C9.09162 4.09309 8.8186 4.20618 8.6173 4.40748L0.392989 12.6318C-0.131038 13.1558 -0.130991 14.0054 0.393097 14.5294L8.9328 23.0672L5.00928 26.9907C4.67118 27.3288 4.91064 27.9069 5.38879 27.9069L22.6236 27.9069C22.9083 27.9069 23.1813 27.7938 23.3826 27.5925L31.607 19.3681C32.131 18.8441 32.131 17.9946 31.607 17.4706L23.0682 8.93175L26.9906 5.0093C27.3287 4.6712 27.0893 4.09309 26.6111 4.09309H9.37631ZM20.0429 12.8896H22.4907C22.9353 12.8896 23.2958 13.25 23.2958 13.6946V18.1715C23.2958 18.6161 22.9353 18.9765 22.4907 18.9765H20.0429C19.5983 18.9765 19.2378 18.6161 19.2378 18.1715V13.6946C19.2378 13.25 19.5983 12.8896 20.0429 12.8896ZM14.6759 12.8896H12.2281C11.7834 12.8896 11.423 13.25 11.423 13.6946V18.1715C11.423 18.6161 11.7834 18.9765 12.2281 18.9765H14.6759C15.1205 18.9765 15.4809 18.6161 15.4809 18.1715V13.6946C15.4809 13.25 15.1205 12.8896 14.6759 12.8896Z" fill="#B79DFF"/>
</svg>
