<?xml version="1.0" encoding="UTF-8"?>
<svg width="101px" height="42px" viewBox="0 0 101 42" version="1.1" xmlns="http://www.w3.org/2000/svg" xmlns:xlink="http://www.w3.org/1999/xlink">
    <!-- Generator: Sketch 63.1 (92452) - https://sketch.com -->
    <title>Group 10</title>
    <desc>Created with Sketch.</desc>
    <g id="Page-1" stroke="none" stroke-width="1" fill="none" fill-rule="evenodd">
        <g id="iPhone-8" transform="translate(-11.000000, -9.000000)">
            <g id="Group-10" transform="translate(11.000000, 9.000000)">
                <path d="M59.69502,31.05228 L63.51786,31.05228 L63.51786,11.7978 L59.69502,11.7978 L59.69502,31.05228 Z M57.8256,20.95044 L55.11828,20.95044 L55.11828,31.05228 L51.32358,31.05228 L51.32358,20.95044 L49.37016,20.95044 L49.37016,17.7135 L51.32358,17.7135 L51.32358,16.4577 C51.32358,13.19262 53.36058,11.5185 56.45808,11.5185 C56.90454,11.5185 57.60216,11.60208 57.88104,11.68566 L57.88104,15.48078 C57.60216,15.34134 57.01626,15.22962 56.59794,15.22962 C55.64874,15.22962 55.11828,15.84366 55.11828,16.70886 L55.11828,17.7135 L57.8256,17.7135 L57.8256,20.95044 Z" id="Fill-1" fill="#231F20"></path>
                <path d="M72.001272,27.647802 C73.954272,27.647802 75.349932,26.029122 75.349932,24.103842 C75.349932,22.178142 73.954272,20.587602 72.001272,20.587602 C70.075992,20.587602 68.624892,22.178142 68.624892,24.103842 C68.624892,26.029122 70.075992,27.647802 72.001272,27.647802 M72.001272,16.876482 C76.075272,16.876482 79.228632,20.029422 79.228632,24.103842 C79.228632,28.177842 76.075272,31.358922 72.001272,31.358922 C67.927272,31.358922 64.773912,28.177842 64.773912,24.103842 C64.773912,20.029422 67.927272,16.876482 72.001272,16.876482" id="Fill-3" fill="#231F20"></path>
                <polygon id="Fill-4" fill="#231F20" points="83.219472 17.155404 85.675212 26.392044 88.130532 19.052964 87.461472 17.155404 91.228032 17.155404 94.465392 26.392044 96.865272 17.155404 100.799832 17.155404 96.669552 31.051944 92.707692 31.051944 89.944932 23.433984 87.377472 31.051944 83.387052 31.051944 79.284912 17.155404"></polygon>
                <path d="M42,21 C42,32.59788 32.59788,42 21,42 C9.40212,42 0,32.59788 0,21 C0,9.40212 9.40212,0 21,0 C32.59788,0 42,9.40212 42,21" id="Fill-5" fill="#00EF8B"></path>
                <polygon id="Fill-6" fill="#FFFFFF" points="24.28608 23.64348 30.21522 23.64348 30.21522 17.71392 24.28608 17.71392"></polygon>
                <path d="M18.356352,25.866918 C18.356352,27.094998 17.360952,28.090398 16.133292,28.090398 C14.905212,28.090398 13.909392,27.094998 13.909392,25.866918 C13.909392,24.638838 14.905212,23.643438 16.133292,23.643438 L18.356352,23.643438 L18.356352,17.713878 L16.133292,17.713878 C11.637192,17.713878 7.979832,21.371238 7.979832,25.866918 C7.979832,30.362598 11.637192,34.019958 16.133292,34.019958 C20.628132,34.019958 24.285492,30.362598 24.285492,25.866918 L24.285492,23.643438 L18.356352,23.643438 L18.356352,25.866918 Z" id="Fill-7" fill="#FFFFFF"></path>
                <path d="M26.509224,14.749644 L33.180084,14.749644 L33.180084,8.820084 L26.509224,8.820084 C22.013544,8.820084 18.356184,12.477444 18.356184,16.973124 L18.356184,17.714004 L24.285744,17.714004 L24.285744,16.973124 C24.287004,15.745884 25.281564,14.750904 26.509224,14.749644" id="Fill-8" fill="#FFFFFF"></path>
                <polygon id="Fill-9" fill="#16FF99" points="18.356352 23.643438 24.285492 23.643438 24.285912 23.643438 24.285912 17.713878 24.285492 17.713878 18.356352 17.713878"></polygon>
            </g>
        </g>
    </g>
</svg>