<svg width="250" height="250" viewBox="0 0 250 250" fill="none" xmlns="http://www.w3.org/2000/svg">
<rect width="250" height="250" fill="white"/>
<path d="M129.869 91.8324C114.956 91.8324 100.401 97.5824 89.5191 107.782C77.5841 118.973 70.031 135.5 65.7015 151.046C62.8658 161.22 61.4453 171.772 61.4453 182.328C61.4453 185.52 61.5763 188.686 61.8279 191.815C62.1372 195.621 65.843 198.257 69.533 197.261C72.7514 196.396 76.1374 195.93 79.6283 195.93C86.7988 195.93 93.5185 197.88 99.2789 201.287C99.4205 201.371 99.5568 201.455 99.6983 201.533C109.06 207.115 120.104 210.182 131.882 209.789C162.602 208.772 187.699 183.775 188.831 153.059C190.068 119.455 163.2 91.8271 129.874 91.8271L129.869 91.8324ZM129.869 177.789C114.977 177.789 102.906 165.718 102.906 150.831C102.906 135.945 114.977 123.869 129.869 123.869C144.76 123.869 156.831 135.94 156.831 150.831C156.831 165.723 144.76 177.789 129.869 177.789Z" fill="#14AAFF"/>
<path d="M105.611 73.2569C105.611 81.0302 101.538 88.2426 94.8499 92.2052C90.6514 94.6949 86.715 97.6355 83.1508 100.985C75.2412 108.396 69.3392 117.491 64.9678 126.506C64.1081 128.283 61.4402 127.654 61.4402 125.678V73.2569C61.4402 61.0598 71.331 51.1689 83.5282 51.1689C95.7253 51.1689 105.616 61.0598 105.616 73.2569H105.611Z" fill="#0077FF"/>
</svg>
