<svg width="315" height="315" viewBox="-50 -50 415 415" fill="none" xmlns="http://www.w3.org/2000/svg">
<path fill-rule="evenodd" clip-rule="evenodd" d="M314.999 160.964C314.999 74.0413 244.485 3.57642 157.501 3.57642C70.5133 3.57642 -0.00106812 74.0413 -0.00106812 160.964V243.222C-0.00106812 281.772 31.5644 313.315 70.1448 313.315H244.857C283.433 313.315 314.999 281.772 314.999 243.222V160.964Z" fill="#F5E3F7"/>
<path fill-rule="evenodd" clip-rule="evenodd" d="M293.031 168.114C293.031 143.959 285.925 50.1802 194.991 35.9742C114.188 23.3483 47.2191 48.761 30.1713 129.75C13.1199 210.739 28.7486 286.044 88.4249 293.15C148.105 300.253 165.153 297.411 227.671 294.569C290.189 291.728 293.031 192.268 293.031 168.114Z" fill="#FF5A9D"/>
<path fill-rule="evenodd" clip-rule="evenodd" d="M214.539 99.2671C187.954 99.2671 165.294 116.086 156.622 139.665C147.949 116.086 125.289 99.2671 98.7004 99.2671C64.6262 99.2671 37.0044 126.889 37.0044 160.963C37.0044 195.037 64.6262 222.659 98.7004 222.659C125.289 222.659 147.949 205.84 156.622 182.261C165.294 205.84 187.954 222.659 214.539 222.659C248.613 222.659 276.235 195.037 276.235 160.963C276.235 126.889 248.613 99.2671 214.539 99.2671Z" fill="white"/>
<path fill-rule="evenodd" clip-rule="evenodd" d="M99.9613 117.504C77.7086 117.504 59.6706 135.542 59.6706 157.794C59.6706 180.051 77.7086 198.085 99.9613 198.085C122.214 198.085 140.252 180.051 140.252 157.794C140.252 135.542 122.214 117.504 99.9613 117.504Z" fill="#7320D3"/>
<path fill-rule="evenodd" clip-rule="evenodd" d="M213.281 117.504C191.028 117.504 172.99 135.542 172.99 157.794C172.99 180.051 191.028 198.085 213.281 198.085C235.533 198.085 253.571 180.051 253.571 157.794C253.571 135.542 235.533 117.504 213.281 117.504Z" fill="#7320D3"/>
<path fill-rule="evenodd" clip-rule="evenodd" d="M134.981 128.876C134.981 138.656 127.052 146.581 117.271 146.581C107.495 146.581 99.5659 138.656 99.5659 128.876C99.5659 119.099 107.495 111.17 117.271 111.17C127.052 111.17 134.981 119.099 134.981 128.876Z" fill="white"/>
<path fill-rule="evenodd" clip-rule="evenodd" d="M253.021 128.876C253.021 138.656 245.093 146.581 235.316 146.581C225.535 146.581 217.61 138.656 217.61 128.876C217.61 119.099 225.535 111.17 235.316 111.17C245.093 111.17 253.021 119.099 253.021 128.876Z" fill="white"/>
</svg>