<?xml version="1.0" encoding="utf-8"?>
<svg viewBox="0 0 255.978 255.989" version="1.1" xmlns="http://www.w3.org/2000/svg" style="fill-rule:evenodd;clip-rule:evenodd;stroke-linejoin:round;stroke-miterlimit:2;" xmlns:bx="https://boxy-svg.com">
  <defs>
    <bx:export>
      <bx:file format="svg" href="#object-0"/>
    </bx:export>
  </defs>
  <g transform="matrix(2.359248, 0, 0, 2.46578, -247725.5625, -133715.515625)" style="">
    <g transform="matrix(2.160847, 0, 0, 0.334548, -49412.796875, 54143.773438)" style="" id="object-0">
      <g transform="matrix(0.244795,0,0,1.50355,46437.1,-82031.2)">
        <path d="M102398,54780.1C102398,54780.1 102393,54813.2 102393,54829.8C102393,54846.4 102398,54879.8 102398,54879.8C102398,54893.5 102387,54904.5 102374,54904.5C102374,54904.5 102342,54900.1 102325,54900.1C102308,54900.1 102272,54904.5 102272,54904.5C102259,54904.5 102249,54893.5 102249,54879.8C102249,54879.8 102253,54843.4 102253,54826.8C102253,54811.1 102249,54780.1 102249,54780.1C102249,54766.5 102259,54755.4 102272,54755.4C102272,54755.4 102305,54760.8 102322,54760.8C102339,54760.8 102374,54755.4 102374,54755.4C102387,54755.4 102398,54766.5 102398,54780.1Z" style="fill:rgb(138,255,138);"/>
      </g>
      <g transform="matrix(0.827762,0,0,0.827762,12317.4,82.4247)">
        <g transform="matrix(0.412927,0,0,2.66709,35549.6,-99431.1)">
          <path d="M87042.7,37428.6L87034,37436.6L87035.8,37465L87032.9,37470.1L87016.9,37470.3L87021.4,37464.8L87008.4,37430.7L87007.9,37446.3L86995.7,37447L86983.5,37464.8L86989.5,37470.3L86970,37470.1L86976.7,37429.6L87001.5,37418.7L87011.1,37402.2L87015.3,37404.1C87015.3,37404.1 87028.4,37388.6 87032.7,37386.2C87035.8,37384.4 87040.9,37383.9 87043.3,37386.1C87046.2,37388.6 87053.5,37403 87053.5,37403L87046.8,37406.2L87033,37400.7L87026.4,37410.1L87038.5,37418.7L87035.3,37423.4L87042.7,37428.6Z" style="fill:rgb(8,8,8);stroke:black;stroke-width:0.41px;"/>
        </g>
        <g transform="matrix(1,0,0,1,-8.93885,-30.077)">
          <g>
            <g transform="matrix(0.296681,-0.15779,0.0244296,1.91626,41975.1,-83581.9)">
              <path d="M95255,51650.5C95257.4,51651.5 95266.1,51656.3 95268.2,51657.5C95266.7,51662.2 95260.2,51662.2 95257.2,51659.2C95254.7,51656.8 95255,51653.7 95255,51650.5Z" style="fill:rgb(8,8,8);stroke:black;stroke-width:0.57px;"/>
            </g>
            <g transform="matrix(0.292279,0.364768,-0.0564744,1.88783,46573.8,-131898)">
              <path d="M95279.6,51651.6C95279.7,51652.5 95280,51653.4 95280,51654.3C95280,51656.3 95278.8,51658.6 95277.6,51660C95276.8,51660.9 95275.5,51661.5 95274.3,51660.9C95273.3,51660.4 95272.8,51657.8 95272.8,51657.8L95279.6,51651.6Z" style="fill:rgb(8,8,8);stroke:black;stroke-width:0.57px;"/>
            </g>
          </g>
          <g transform="matrix(0.719988,0,0,0.719988,20021.2,111.099)">
            <g transform="matrix(0.335984,0,0,2.17012,39493,-111728)">
              <path d="M95276.5,51667.1L95272.4,51669.8C95272.5,51668.5 95272.4,51666.8 95273,51665.7C95273.5,51664.5 95274.7,51664.8 95275.4,51665.5C95275.8,51665.9 95276.2,51666.7 95276.5,51667.1Z" style="fill:rgb(8,8,8);stroke:black;stroke-width:0.7px;"/>
            </g>
            <g transform="matrix(0.335984,0,0,2.17012,39493,-111728)">
              <path d="M95265,51666.9C95265.7,51665.3 95268,51663.8 95269.2,51665.8C95269.8,51666.9 95269.8,51668.9 95269.9,51670C95268.1,51669.2 95266.6,51667.9 95265,51666.9Z" style="fill:rgb(8,8,8);stroke:black;stroke-width:0.7px;"/>
            </g>
          </g>
        </g>
        <g transform="matrix(0.0625645,0,0,0.403987,71447.5,183.245)">
          <path d="M470.5,675.26L401.089,766.75L435.665,797.329L503.132,796.678L472.47,764.524L471.329,704.665L470.5,675.26Z" style="fill:rgb(8,8,8);fill-rule:nonzero;stroke:black;stroke-width:2.7px;"/>
        </g>
        <g transform="matrix(0.412927,0,0,2.66709,35541,-100883)">
          <path d="M87063,37983L87075.1,37969.7L87070.2,37992.3L87063.7,38000.5L87063,37983Z" style="fill:rgb(8,8,8);stroke:black;stroke-width:0.41px;stroke-linecap:square;stroke-linejoin:bevel;stroke-miterlimit:1.59884;"/>
        </g>
      </g>
    </g>
  </g>
</svg>