<svg width="257" height="256" viewBox="0 0 257 256" fill="none" xmlns="http://www.w3.org/2000/svg">
<path d="M35.5 128C35.5 76.6375 77.1375 35 128.5 35C179.862 35 221.5 76.6375 221.5 128C221.5 179.362 179.862 221 128.5 221C77.1375 221 35.5 179.362 35.5 128Z" fill="#212121"/>
<path fill-rule="evenodd" clip-rule="evenodd" d="M128.5 212.281C167.851 212.281 200.867 185.005 209.875 148.227H181.836C173.706 169.898 152.893 185.311 128.5 185.311C104.107 185.311 83.2939 169.898 75.1641 148.227H47.125C56.1334 185.005 89.1494 212.281 128.5 212.281ZM128.5 43.7188C167.851 43.7188 200.867 70.9945 209.875 107.772H181.836C173.706 86.1019 152.893 70.6886 128.5 70.6886C104.107 70.6886 83.2939 86.1019 75.1641 107.772H47.125C56.1334 70.9945 89.1494 43.7188 128.5 43.7188ZM113.75 107.772C110.788 107.772 108.387 110.187 108.387 113.166V142.834C108.387 145.813 110.788 148.227 113.75 148.227H143.25C146.212 148.227 148.613 145.813 148.613 142.834V113.166C148.613 110.187 146.212 107.772 143.25 107.772H113.75Z" fill="#C6FF00"/>
</svg>
