<svg width="250" height="250" viewBox="0 0 250 250" fill="none" xmlns="http://www.w3.org/2000/svg">
<path d="M108.209 52H174.476C187.307 52 197.634 62.327 197.634 75.1584V141.426H108.209V52Z" fill="#1D2028"/>
<path d="M76.1584 52H87.5546V86.5546H53V75.1584C53 62.327 63.327 52 76.1584 52Z" fill="#1D2028"/>
<path d="M87.5546 107.209H53V141.763H87.5546V107.209Z" fill="#1D2028"/>
<path d="M174.842 196.634H163.445V162.445H198V173.476C198 186.307 187.673 196.634 174.842 196.634Z" fill="#1D2028"/>
<path d="M142.763 162.445H108.209V197H142.763V162.445Z" fill="#1D2028"/>
<path d="M53 173.842V162.445H87.5546V197H76.1584C63.327 197 53 186.673 53 173.842Z" fill="#1D2028"/>
</svg>
